<?xml version="1.0" encoding="utf-8"?>
<!-- Generator: Adobe Illustrator 20.1.0, SVG Export Plug-In . SVG Version: 6.00 Build 0)  -->
<svg version="1.1" id="Calque_1" xmlns="http://www.w3.org/2000/svg" xmlns:xlink="http://www.w3.org/1999/xlink" x="0px" y="0px"
	 viewBox="0 0 938.6 182.2" style="enable-background:new 0 0 938.6 182.2;" xml:space="preserve">
<style type="text/css">
	.st0{clip-path:url(#SVGID_2_);}
	.st1{fill:url(#SVGID_3_);}
	.st2{opacity:0.1;fill:#FFFFFF;enable-background:new    ;}
</style>
<title>Fichier 3</title>
<g id="Calque_2">
	<g id="accueil">
		<g>
			<defs>
				<path id="SVGID_1_" d="M49.7,0h839.2c27.5,0,49.7,22.3,49.7,49.7v82.8c0,27.5-22.3,49.7-49.7,49.7H49.7
					C22.3,182.2,0,160,0,132.5V49.7C0,22.3,22.3,0,49.7,0z"/>
			</defs>
			<clipPath id="SVGID_2_">
				<use xlink:href="#SVGID_1_"  style="overflow:visible;"/>
			</clipPath>
			<g class="st0">
				
					<linearGradient id="SVGID_3_" gradientUnits="userSpaceOnUse" x1="1048.0199" y1="87.638" x2="-32.0902" y2="171.6481" gradientTransform="matrix(1 0 0 -1 0 223.76)">
					<stop  offset="0" style="stop-color:#FF7D15"/>
					<stop  offset="0.5" style="stop-color:#FD9930"/>
					<stop  offset="1" style="stop-color:#F8AB31"/>
				</linearGradient>
				<path class="st1" d="M49.7,0h839.2c27.5,0,49.7,22.3,49.7,49.7v82.8c0,27.5-22.3,49.7-49.7,49.7H49.7C22.3,182.2,0,160,0,132.5
					V49.7C0,22.3,22.3,0,49.7,0z"/>
				<path class="st2" d="M-9-7.1v236h3.9c66-112.3,222.7-204,414.5-229c19.8-2.6,39.4-4.4,58.8-5.4v-1.6H-9z"/>
			</g>
		</g>
	</g>
</g>
</svg>
