<svg xmlns="http://www.w3.org/2000/svg" xmlns:xlink="http://www.w3.org/1999/xlink" viewBox="0 0 247.11 67.55"><defs><style>.cls-1{fill:none;}.cls-2{clip-path:url(#clip-path);}.cls-3{clip-path:url(#clip-path-2);}.cls-4{fill:#5f6361;}.cls-5{fill:#5f5d61;}.cls-6{opacity:0.5;}.cls-7{clip-path:url(#clip-path-3);}.cls-8{fill:#63c6d0;}.cls-9{clip-path:url(#clip-path-4);}.cls-10{fill:#69bc69;}.cls-11{clip-path:url(#clip-path-5);}.cls-12{fill:#99c747;}.cls-13{clip-path:url(#clip-path-6);}.cls-14{fill:#f38b38;}.cls-15{clip-path:url(#clip-path-7);}.cls-16{fill:#ed5134;}.cls-17{clip-path:url(#clip-path-8);}.cls-18{fill:#7e539e;}.cls-19{clip-path:url(#clip-path-9);}.cls-20{fill:#3ca9dd;}.cls-21{clip-path:url(#clip-path-10);}.cls-22{fill:#ea347f;}.cls-23{clip-path:url(#clip-path-11);}.cls-24{fill:#faeb49;}</style><clipPath id="clip-path" transform="translate(-10.21 -59.5)"><rect class="cls-1" y="47.84" width="265.88" height="86"/></clipPath><clipPath id="clip-path-2" transform="translate(-10.21 -59.5)"><rect class="cls-1" width="265.88" height="188"/></clipPath><clipPath id="clip-path-3" transform="translate(-10.21 -59.5)"><rect class="cls-1" x="17.33" y="70.5" width="22.55" height="22.55"/></clipPath><clipPath id="clip-path-4" transform="translate(-10.21 -59.5)"><rect class="cls-1" x="10.21" y="81.94" width="22.55" height="22.55"/></clipPath><clipPath id="clip-path-5" transform="translate(-10.21 -59.5)"><rect class="cls-1" x="17.33" y="93.05" width="22.55" height="22.55"/></clipPath><clipPath id="clip-path-6" transform="translate(-10.21 -59.5)"><rect class="cls-1" x="48.86" y="93.05" width="22.55" height="22.55"/></clipPath><clipPath id="clip-path-7" transform="translate(-10.21 -59.5)"><rect class="cls-1" x="55.32" y="81.94" width="22.55" height="22.55"/></clipPath><clipPath id="clip-path-8" transform="translate(-10.21 -59.5)"><rect class="cls-1" x="48.86" y="70.5" width="22.55" height="22.55"/></clipPath><clipPath id="clip-path-9" transform="translate(-10.21 -59.5)"><rect class="cls-1" x="32.87" y="59.5" width="22.55" height="22.55"/></clipPath><clipPath id="clip-path-10" transform="translate(-10.21 -59.5)"><rect class="cls-1" x="32.76" y="81.94" width="22.55" height="22.55"/></clipPath><clipPath id="clip-path-11" transform="translate(-10.21 -59.5)"><rect class="cls-1" x="32.87" y="104.49" width="22.55" height="22.55"/></clipPath></defs><title>Fichier 11</title><g id="Calque_2" data-name="Calque 2"><g id="Proxym_galery" data-name="Proxym galery"><g class="cls-2"><g class="cls-3"><path class="cls-4" d="M84.17,98.1V66.62H97.66q11.24,0,11.24,11.24T97.66,89.11h-9v9Zm4.5-27V84.61h9q6.75,0,6.75-6.75t-6.75-6.75Z" transform="translate(-10.21 -59.5)"/><path class="cls-4" d="M111.15,98.11V66.62h13.49q11.24,0,11.24,11.24T124.65,89.11h-9v9Zm4.5-27V84.61h9q6.75,0,6.75-6.75t-6.75-6.75Zm11.24,15.74,9,11.24h-5.67l-9-11.24Z" transform="translate(-10.21 -59.5)"/><path class="cls-4" d="M165,71.23a15.74,15.74,0,1,1-11.13-4.61A15.17,15.17,0,0,1,165,71.23m-11.13-.11a11.24,11.24,0,0,0-7.95,19.19,11.24,11.24,0,1,0,15.9-15.9,10.83,10.83,0,0,0-7.95-3.29" transform="translate(-10.21 -59.5)"/><path class="cls-4" d="M177.44,98.11h-5.58l19.07-31.48h5.67Zm-5.58-31.48h5.67L196.6,98.11H191Z" transform="translate(-10.21 -59.5)"/><polygon class="cls-4" points="188.64 7.13 194.31 7.13 201.01 18.37 207.71 7.13 213.38 7.13 203.3 22.87 203.3 38.61 198.81 38.61 198.81 22.87 188.64 7.13"/><polygon class="cls-4" points="215.63 38.61 215.63 7.13 220.12 7.13 231.37 31.86 242.61 7.13 247.11 7.13 247.11 38.61 242.61 38.61 242.61 16.12 233.62 38.61 229.12 38.61 220.12 16.12 220.12 38.61 215.63 38.61"/><path class="cls-5" d="M103,112a9.67,9.67,0,0,1-9.67,7.54c-5.43,0-9.84-4.12-9.84-9.19s4.41-9.22,9.84-9.22a9.69,9.69,0,0,1,9.67,7.54h-.52a9.2,9.2,0,0,0-9.15-7.05c-5.15,0-9.31,3.91-9.31,8.73s4.16,8.7,9.31,8.7a9.24,9.24,0,0,0,9-6.57H93.88V112Z" transform="translate(-10.21 -59.5)"/><path class="cls-5" d="M107.63,110.59l10.77,9h-.74l-10.77-9h-.61v9h-.52V101.14h7.6a4.73,4.73,0,1,1,0,9.45Zm-1.35-.49h7.08a4.24,4.24,0,1,0,0-8.47h-7.08Z" transform="translate(-10.21 -59.5)"/><path class="cls-5" d="M121.16,110.36c0-5.1,4.41-9.22,9.84-9.22s9.84,4.12,9.84,9.22-4.41,9.19-9.84,9.19-9.84-4.12-9.84-9.19m.52,0c0,4.79,4.16,8.7,9.31,8.7s9.31-3.91,9.31-8.7-4.19-8.73-9.31-8.73-9.31,3.91-9.31,8.73" transform="translate(-10.21 -59.5)"/><path class="cls-5" d="M158.74,101.14v11.33a7.59,7.59,0,0,1-15.15,0V101.14h.52v11.33a7.07,7.07,0,0,0,14.11,0h0V101.14Z" transform="translate(-10.21 -59.5)"/><path class="cls-5" d="M161.5,119.55V101.14h7.93a4.73,4.73,0,1,1,0,9.45H162v9Zm.52-9.45h7.41a4.24,4.24,0,1,0,0-8.47H162Z" transform="translate(-10.21 -59.5)"/><g class="cls-6"><g class="cls-7"><rect class="cls-8" x="7.12" y="11" width="22.55" height="22.55" rx="4.26" ry="4.26"/></g></g><g class="cls-6"><g class="cls-9"><rect class="cls-10" y="22.45" width="22.55" height="22.55" rx="4.26" ry="4.26"/></g></g><g class="cls-6"><g class="cls-11"><rect class="cls-12" x="7.12" y="33.56" width="22.55" height="22.55" rx="4.26" ry="4.26"/></g></g><g class="cls-6"><g class="cls-13"><rect class="cls-14" x="38.65" y="33.56" width="22.55" height="22.55" rx="4.26" ry="4.26"/></g></g><g class="cls-6"><g class="cls-15"><rect class="cls-16" x="45.11" y="22.45" width="22.55" height="22.55" rx="4.26" ry="4.26"/></g></g><g class="cls-6"><g class="cls-17"><rect class="cls-18" x="38.65" y="11" width="22.55" height="22.55" rx="4.26" ry="4.26"/></g></g><g class="cls-6"><g class="cls-19"><rect class="cls-20" x="22.66" width="22.55" height="22.55" rx="4.26" ry="4.26"/></g></g><g class="cls-6"><g class="cls-21"><rect class="cls-22" x="22.55" y="22.45" width="22.55" height="22.55" rx="4.26" ry="4.26"/></g></g><g class="cls-6"><g class="cls-23"><rect class="cls-24" x="22.66" y="45" width="22.55" height="22.55" rx="4.26" ry="4.26"/></g></g></g></g></g></g></svg>